<?xml version="1.0" encoding="UTF-8" standalone="no"?>
<!DOCTYPE svg PUBLIC "-//W3C//DTD SVG 1.1//EN"
 "http://www.w3.org/Graphics/SVG/1.1/DTD/svg11.dtd">
<!-- Generated by graphviz version 2.40.1 (20161225.0304)
 -->
<!-- Title: test Pages: 1 -->
<svg width="283pt" height="189pt"
 viewBox="0.00 0.00 283.00 189.00" xmlns="http://www.w3.org/2000/svg" xmlns:xlink="http://www.w3.org/1999/xlink">
<g id="graph0" class="graph" transform="scale(1 1) rotate(0) translate(4 185)">
<title>test</title>
<polygon fill="#ffffff" stroke="transparent" points="-4,4 -4,-185 279,-185 279,4 -4,4"/>
<!-- test_table -->
<g id="node1" class="node">
<title>test_table</title>
<polygon fill="#efefef" stroke="transparent" points="43.5,-102.5 43.5,-137.5 232.5,-137.5 232.5,-102.5 43.5,-102.5"/>
<polygon fill="none" stroke="#000000" points="43.5,-102.5 43.5,-137.5 232.5,-137.5 232.5,-102.5 43.5,-102.5"/>
<text text-anchor="start" x="50.3572" y="-115.3" font-family="Arial Bold" font-size="18.00" fill="#000000">test_table</text>
<text text-anchor="start" x="128.389" y="-115.3" font-family="Arial" font-size="14.00" fill="#000000"> </text>
<text text-anchor="start" x="132.2796" y="-115.3" font-family="Arial" font-size="14.00" fill="#666666">[BASE TABLE]</text>
<polygon fill="none" stroke="#000000" points="43.5,-72.5 43.5,-102.5 232.5,-102.5 232.5,-72.5 43.5,-72.5"/>
<text text-anchor="start" x="50.5" y="-83.9" font-family="Arial" font-size="14.00" fill="#000000">id </text>
<text text-anchor="start" x="65.2798" y="-83.9" font-family="Arial" font-size="14.00" fill="#666666">[int]</text>
<polygon fill="none" stroke="#000000" points="43.5,-42.5 43.5,-72.5 232.5,-72.5 232.5,-42.5 43.5,-42.5"/>
<text text-anchor="start" x="50.5" y="-53.9" font-family="Arial" font-size="14.00" fill="#000000">name </text>
<text text-anchor="start" x="89.399" y="-53.9" font-family="Arial" font-size="14.00" fill="#666666">[varchar(255)]</text>
</g>
</g>
</svg>
